<?xml version="1.0" encoding="UTF-8" standalone="no"?>
<!DOCTYPE svg PUBLIC "-//W3C//DTD SVG 1.1//EN" "http://www.w3.org/Graphics/SVG/1.1/DTD/svg11.dtd">
<svg width="100%" height="100%" viewBox="0 0 512 512" version="1.1" xmlns="http://www.w3.org/2000/svg" xmlns:xlink="http://www.w3.org/1999/xlink" xml:space="preserve" xmlns:serif="http://www.serif.com/" style="fill-rule:evenodd;clip-rule:evenodd;stroke-linejoin:round;stroke-miterlimit:2;">
    <g>
        <g>
            <path d="M255.994,448.742C375.105,448.742 471.683,352.166 471.683,233.054C471.683,113.942 375.105,17.394 255.994,17.394C136.883,17.394 40.305,113.942 40.305,233.054C40.305,352.166 136.883,448.742 255.994,448.742Z" style="fill:rgb(210,210,232);"/>
            <path d="M255.994,448.742C375.105,448.742 471.683,352.166 471.683,233.054C471.683,167.46 442.372,108.698 396.167,69.155C428.454,106.856 447.956,155.81 447.956,209.328C447.956,328.44 351.378,425.016 232.267,425.016C178.749,425.016 129.794,405.514 92.093,373.227C131.639,419.46 190.4,448.742 255.994,448.742Z" style="fill:rgb(168,168,217);"/>
            <path d="M196.154,277.359L196.154,339.183C196.154,367.331 220.22,365.772 220.22,401.715L291.767,401.715C291.767,348.112 314.189,352.392 314.189,300.603C314.189,251.167 309.427,196.6 257.326,191.469C242.756,190.052 230.68,203.46 230.68,218.115L230.68,277.359C230.68,267.863 222.914,260.096 213.418,260.096C203.922,260.096 196.154,267.863 196.154,277.359Z" style="fill:rgb(255,222,207);"/>
            <path d="M197.232,424.704L197.232,477.145C198.109,484.855 204.232,491.006 211.943,491.857L300.044,491.857C307.782,491.006 313.905,484.855 314.755,477.145L314.755,424.704C314.755,412.061 304.409,401.715 291.767,401.715L220.22,401.715C207.578,401.715 197.232,412.061 197.232,424.704Z" style="fill:rgb(111,111,222);"/>
            <path d="M319.83,267.693L373.348,236.795C397.727,222.707 384.319,202.637 415.444,184.666L379.698,122.729C333.266,149.517 325.784,127.945 280.911,153.854C238.079,178.572 193.208,209.98 214.835,257.659C220.901,270.982 238.534,274.724 251.233,267.41L302.54,237.788C294.319,242.521 291.485,253.152 296.218,261.372C300.98,269.592 311.582,272.455 319.83,267.693Z" style="fill:rgb(247,190,175);"/>
            <path d="M446.852,193.085L492.291,166.865C498.555,162.244 500.795,153.882 497.676,146.767L453.627,70.458C449.006,64.222 440.643,61.954 433.529,65.072L388.117,91.292C377.146,97.642 373.377,111.758 379.697,122.728L415.443,184.665C421.764,195.608 435.91,199.406 446.852,193.085Z" style="fill:rgb(115,115,210);"/>
            <path d="M252.025,164.03L198.507,133.132C174.128,119.044 163.443,140.7 132.318,122.729L96.543,184.666C142.947,211.454 128.037,228.745 172.883,254.625C215.713,279.371 265.348,302.53 295.821,259.954C304.354,248.048 298.77,230.898 286.071,223.557L234.762,193.935C242.983,198.697 253.614,195.862 258.346,187.614C263.109,179.394 260.273,168.764 252.025,164.03Z" style="fill:rgb(254,212,190);"/>
            <path d="M123.898,91.293L78.459,65.073C71.344,61.955 62.982,64.222 58.389,70.459L14.34,146.767C11.221,153.882 13.461,162.244 19.697,166.865L65.136,193.085C76.077,199.406 90.222,195.608 96.542,184.666L132.317,122.729C138.639,111.759 134.842,97.643 123.898,91.293Z" style="fill:rgb(115,115,210);"/>
            <path d="M423.521,192.858C430.466,196.996 439.396,197.394 446.851,193.085L492.29,166.865C498.554,162.244 500.794,153.882 497.675,146.767L453.626,70.458C449.005,64.222 440.642,61.954 433.528,65.072L427.971,68.303C428.651,68.955 429.303,69.663 429.869,70.457L473.92,146.766C477.039,153.881 474.799,162.243 468.563,166.864L423.521,192.858Z" style="fill:rgb(127,127,220);"/>
            <path d="M108.562,122.729L72.818,184.666C70.804,188.153 67.998,190.931 64.738,192.858L65.136,193.085C76.077,199.406 90.222,195.608 96.542,184.666L132.317,122.729C138.637,111.759 134.84,97.643 123.897,91.293L78.458,65.073C72.249,62.351 65.079,63.74 60.288,68.304L100.171,91.293C111.113,97.643 114.914,111.759 108.562,122.729Z" style="fill:rgb(127,127,220);"/>
            <path d="M291.029,477.145C290.15,484.855 284.029,491.006 276.318,491.857L300.045,491.857C307.783,491.006 313.906,484.855 314.756,477.145L314.756,424.704C314.756,419.403 312.942,414.499 309.908,410.616C305.685,405.202 299.109,401.715 291.767,401.715L268.04,401.715C280.739,401.715 291.028,412.118 291.028,424.704L291.028,477.145L291.029,477.145Z" style="fill:rgb(127,127,220);"/>
            <path d="M361.217,131.829L387.975,178.175C389.703,181.973 387.891,187.076 384.828,189.174C361.867,204.991 371.959,223.87 349.594,236.796L312.063,258.481L299.676,265.624C303.389,268.912 308.35,270.443 313.225,269.876C315.493,269.621 317.733,268.912 319.83,267.693L373.348,236.795C397.727,222.707 384.319,202.637 415.444,184.666L379.698,122.729C372.752,126.726 366.658,129.646 361.217,131.829Z" style="fill:rgb(240,182,166);"/>
            <path d="M262.344,223.558C272.889,229.652 278.529,242.521 275.24,253.549C274.56,255.788 273.541,257.943 272.094,259.955C262.627,273.192 251.317,280.053 238.93,282.519C260.416,286.091 280.401,281.3 295.623,260.239C295.68,260.154 295.764,260.069 295.82,259.956C299.988,254.145 300.781,247.058 299.023,240.482C298.966,240.283 298.91,240.085 298.853,239.915C296.925,233.253 292.363,227.216 286.07,223.559L240.289,197.14L234.762,193.937C236.889,195.184 239.184,195.893 241.481,196.148C246.555,196.687 251.713,194.958 255.428,191.386C256.561,190.281 257.553,189.033 258.346,187.616C261.948,181.436 261.209,173.868 257.1,168.482C255.768,166.725 254.067,165.193 252.026,164.031L198.508,133.133C185.836,125.791 176.85,128.144 166.787,129.533C169.31,130.327 171.947,131.489 174.781,133.133L228.298,164.031C235.527,168.198 238.589,176.872 236.036,184.497C235.669,185.574 235.216,186.623 234.62,187.615C233.485,189.571 232.04,191.215 230.368,192.547C228.807,193.737 227.079,194.673 225.264,195.297C221.778,196.742 224.555,201.703 228.78,204.197L262.344,223.558Z" style="fill:rgb(247,205,183);"/>
            <path d="M290.463,300.603C290.463,352.392 268.041,348.112 268.041,401.715L291.768,401.715C291.768,348.112 314.19,352.392 314.19,300.603C314.19,290.427 313.991,280.024 313.225,269.875C308.35,270.442 303.389,268.911 299.676,265.623C298.344,264.433 297.153,263.015 296.217,261.371C296.02,261.003 295.821,260.634 295.623,260.237C293.609,263.043 291.484,265.538 289.301,267.805C290.236,278.578 290.463,289.718 290.463,300.603Z" style="fill:rgb(252,212,194);"/>
        </g>
        <path d="M68.793,185.686C72.422,187.784 76.588,188.181 80.387,187.16C85.063,185.913 87.36,183.532 89.94,179.677L125.12,118.76C127.188,115.132 127.614,110.936 126.593,107.138C125.347,102.489 122.966,100.165 119.111,97.614C102.215,87.834 85.293,78.083 68.398,68.332L17.685,156.178C34.721,166.014 51.756,175.85 68.793,185.686ZM196.863,180.754C193.291,178.685 192.045,174.121 194.113,170.549C196.154,166.978 200.718,165.731 204.289,167.8L236.746,186.537C241.281,189.145 247.291,187.558 249.928,183.022C252.535,178.487 250.948,172.449 246.412,169.841L193.377,139.256C184.334,134.012 177.248,135.089 169.707,136.223C159.842,137.697 149.439,139.256 134.473,132.396L106.295,181.209C126.025,193.681 133.481,204.254 140.85,214.771C160.778,243.061 205.508,267.92 238.42,273.335C257.297,276.453 278.076,270.358 288.168,252.869C290.266,249.241 290.52,244.932 289.387,240.85C287.77,235.039 284.567,231.807 279.692,228.576C252.082,212.616 224.473,196.685 196.863,180.754ZM53.684,194.219C52.778,199.009 52.012,203.857 51.416,208.817C50.424,216.924 49.914,225.23 49.914,233.677C49.914,249.721 51.756,265.312 55.185,280.222C58.757,295.642 64.002,310.354 70.777,324.187C72.591,327.872 71.06,332.351 67.347,334.165C63.632,335.979 59.183,334.448 57.368,330.735C50.054,315.853 44.386,300.036 40.587,283.567C36.874,267.495 34.917,250.798 34.917,233.677C34.917,224.691 35.485,215.819 36.534,207.06C37.354,200.086 38.546,193.17 40.048,186.338L3.738,165.362C0.166,163.321 -1.053,158.757 0.988,155.186L59.183,54.386C61.224,50.814 65.786,49.595 69.388,51.636L105.019,72.216C124.466,54.046 147.199,39.306 172.257,29.044C198.138,18.443 226.4,12.603 255.993,12.603C285.587,12.603 313.876,18.442 339.757,29.044C364.786,39.306 387.521,54.046 406.966,72.216L442.202,51.891C445.802,49.51 450.649,50.644 452.831,54.357L473.411,90.045C475.479,93.617 474.261,98.209 470.69,100.278C467.118,102.347 462.526,101.129 460.456,97.557L443.591,68.332C426.554,78.168 409.519,88.004 392.482,97.84C388.853,99.938 386.416,103.339 385.394,107.138C384.374,110.936 384.8,115.132 386.898,118.76L399.796,141.125L422.302,180.073C424.4,183.702 427.802,186.139 431.601,187.16C436.249,188.407 439.453,187.529 443.591,185.459C460.513,175.679 477.407,165.928 494.331,156.177L477.464,126.951C475.396,123.38 476.642,118.788 480.214,116.746C483.786,114.677 488.349,115.924 490.419,119.496L511,155.186C513.068,158.757 511.82,163.321 508.25,165.362L471.938,186.338C473.44,193.17 474.631,200.114 475.481,207.06C476.53,215.819 477.069,224.691 477.069,233.677C477.069,283.68 460.458,329.8 432.452,366.849C404.899,403.302 366.347,430.911 321.702,444.801L321.702,491.885C321.702,496.024 318.329,499.397 314.19,499.397L197.826,499.397C193.66,499.397 190.314,496.024 190.314,491.885L190.314,444.801C167.892,437.828 147.002,427.397 128.265,414.102C107.712,399.532 89.769,381.56 75.255,360.98C72.874,357.607 73.696,352.93 77.069,350.548C80.442,348.167 85.12,348.989 87.501,352.363C101.05,371.553 117.804,388.335 136.938,401.913C153.151,413.422 171.094,422.606 190.313,429.069L190.313,425.384C190.313,417.05 193.715,409.482 199.186,404.011C202.899,400.297 207.547,397.548 212.735,396.159C211.403,384.225 206.415,377.989 201.71,372.064C195.274,363.985 189.237,356.389 189.237,340.685L189.237,279.485C189.237,277.104 189.86,274.468 190.768,271.973C183.057,268.09 175.489,263.894 168.004,259.586C144.533,246.008 136.596,234.726 128.604,223.387C122.055,214.09 115.479,204.707 97.989,193.652C94.161,197.564 89.399,200.257 84.268,201.646C76.501,203.715 68.252,202.609 61.307,198.613L53.684,194.219ZM118.627,80.068L126.592,84.66C133.567,88.147 139.065,95.829 141.078,103.256C142.41,108.33 142.467,113.715 141.078,118.931C152.019,123.721 159.955,122.531 167.469,121.397C180.649,119.413 188.869,119.356 200.889,126.301L253.84,156.887C255.285,157.737 256.617,158.673 257.809,159.722C260.303,158.106 262.883,156.491 265.405,154.903C269.8,152.182 274.534,149.347 278.899,146.824C302.34,133.274 316.088,132.055 329.95,130.808C341.261,129.788 352.655,128.767 370.997,119.129C369.522,113.857 369.55,108.385 370.94,103.255C373.008,95.516 378.026,88.911 384.999,84.886L393.392,80.067C376.015,64.505 355.974,51.862 334.062,42.877C310.023,33.041 283.689,27.598 255.996,27.598C228.33,27.598 201.967,33.041 177.93,42.877C156.016,51.863 136.004,64.505 118.627,80.068ZM265.518,172.562C266.823,178.175 266.17,184.269 263.28,189.74C262.061,192.546 258.745,196.033 256.335,197.847L287.177,215.649C292.732,218.398 297.976,224.238 300.868,229.595L332.757,211.199C336.329,209.13 340.892,210.377 342.962,213.948C345.003,217.52 343.784,222.084 340.212,224.153L307.755,242.89C306.876,243.4 305.913,243.684 304.978,243.826C305.177,247.568 304.722,251.366 303.503,254.995C305.743,257.688 306.054,259.389 310.108,260.494C313.141,261.288 315.126,260.664 317.819,259.332L370.401,228.973C379.471,223.729 382.079,217.039 384.885,209.981C388.514,200.712 392.369,190.904 405.778,181.379C396.309,165.193 386.87,148.866 377.573,132.567C356.936,143.367 344.038,144.529 331.255,145.691C319.038,146.796 306.933,147.874 286.355,159.779C282.839,161.792 278.218,164.598 273.316,167.631C270.592,169.331 267.928,171.003 265.518,172.562ZM295.084,268.458C279.238,286.798 259.537,291.418 238.447,288.471L238.447,316.959C238.447,321.098 235.074,324.471 230.935,324.471C226.796,324.471 223.451,321.097 223.451,316.959L223.451,285.239C217.131,283.425 210.781,281.072 204.431,278.351C204.318,278.805 204.232,279.202 204.232,279.485L204.232,340.685C204.232,351.202 208.683,356.785 213.418,362.739C219.625,370.534 226.201,378.783 227.732,395.111L284.056,395.111C284.878,375.382 288.591,364.156 296.671,346.724C298.399,342.954 302.849,341.338 306.591,343.067C310.363,344.796 312.005,349.247 310.247,352.988C303.048,368.55 299.759,378.443 299.052,396.103C304.324,397.463 309.058,400.241 312.8,404.012C318.271,409.483 321.7,417.051 321.7,425.385L321.7,429.07C361.413,415.719 395.741,390.604 420.487,357.835C446.594,323.309 462.071,280.308 462.071,233.678C462.071,225.231 461.561,216.925 460.598,208.818C460.002,203.857 459.237,199.01 458.301,194.22L451.073,198.387C444.583,202.696 435.171,203.631 427.745,201.647C422.671,200.286 417.966,197.622 414.138,193.823C404.529,200.91 401.581,208.365 398.831,215.424C393.956,227.811 389.901,234.983 377.882,241.899C360.224,252.104 342.534,262.308 324.874,272.513C323.401,273.364 321.87,274.044 320.312,274.554C320.509,277.531 320.652,280.677 320.765,283.88C321.021,290.655 321.134,296.891 321.134,302.503C321.134,307.691 320.878,312.963 320.339,318.122C319.915,322.232 316.257,325.208 312.148,324.783C308.037,324.386 305.033,320.701 305.459,316.591C305.939,311.886 306.109,307.237 306.109,302.503C306.109,296.267 306.025,290.059 305.826,284.418C305.713,281.243 305.543,278.012 305.316,274.695C301.518,273.504 297.975,271.406 295.084,268.458ZM205.31,425.384L205.31,484.373L306.677,484.373L306.677,425.384C306.677,421.189 304.976,417.39 302.199,414.612C299.42,411.834 295.623,410.105 291.427,410.105L220.59,410.105C216.395,410.105 212.567,411.834 209.819,414.612C207.039,417.391 205.31,421.189 205.31,425.384Z" style="fill-rule:nonzero;"/>
    </g>
</svg>
